<?xml version="1.0" standalone="no"?>
<!DOCTYPE svg PUBLIC "-//W3C//DTD SVG 20010904//EN"
 "http://www.w3.org/TR/2001/REC-SVG-20010904/DTD/svg10.dtd">
<svg version="1.0" xmlns="http://www.w3.org/2000/svg"
 width="500.000000pt" height="500.000000pt" viewBox="0 0 500.000000 500.000000"
 preserveAspectRatio="xMidYMid meet">

<g transform="translate(0.000000,500.000000) scale(0.100000,-0.100000)"
fill="#000000" stroke="none">
<path d="M1598 4789 c-49 -265 -181 -668 -290 -884 -125 -247 -147 -321 -173
-599 -9 -88 -18 -162 -20 -164 -7 -7 -124 241 -185 393 -28 72 -83 191 -122
265 -90 171 -105 216 -124 369 -8 69 -17 127 -19 129 -2 2 -6 -35 -10 -81 -12
-146 13 -272 80 -407 34 -69 63 -141 145 -363 28 -75 84 -213 124 -305 40 -92
80 -192 87 -222 22 -86 17 -378 -10 -598 -41 -337 -91 -441 -377 -777 -201
-237 -280 -361 -342 -537 -35 -99 -57 -145 -109 -226 -56 -87 -109 -209 -130
-297 -14 -61 -18 -120 -18 -253 l0 -174 28 -24 c38 -32 90 -32 122 1 14 13 25
34 25 47 0 13 1 97 3 188 5 200 22 264 121 438 35 62 81 161 101 220 66 189
145 322 296 502 190 227 272 347 328 488 25 62 45 93 89 137 135 136 342 261
627 378 110 45 352 128 411 141 31 7 32 6 44 -42 6 -29 29 -73 55 -107 51 -69
52 -74 60 -270 9 -209 24 -250 85 -225 16 7 32 21 35 31 4 11 -3 99 -15 196
-12 96 -20 190 -17 207 2 17 18 69 34 114 40 112 79 152 154 159 75 6 84 10
69 28 -7 9 -10 18 -7 21 3 3 69 1 146 -6 208 -17 357 -57 671 -183 146 -58
315 -121 375 -140 301 -96 548 -115 815 -63 41 9 86 17 100 20 38 8 -76 -2
-155 -14 -38 -5 -131 -9 -206 -10 -257 0 -473 57 -890 235 -196 84 -325 132
-434 162 l-90 24 115 -8 c191 -13 395 -8 490 11 192 40 375 118 462 196 l43
39 -106 -53 c-189 -94 -347 -134 -559 -142 -119 -5 -167 -2 -270 15 -149 25
-298 27 -465 6 -66 -8 -125 -15 -131 -15 -12 0 -9 22 20 135 9 33 16 77 16 97
0 49 -33 136 -76 198 -59 86 -45 141 70 259 60 62 75 81 56 76 -32 -10 -76
-29 -120 -55 -41 -24 -61 -25 -100 -5 -28 14 -32 13 -87 -16 -32 -17 -66 -38
-77 -48 -39 -34 -88 -172 -120 -341 -20 -105 -20 -159 -1 -279 9 -52 12 -98 8
-102 -4 -4 -66 -23 -138 -44 -338 -96 -624 -223 -839 -373 l-79 -55 6 69 c4
38 10 159 13 269 7 222 -3 338 -39 445 -21 61 -22 71 -10 155 6 50 16 150 22
222 16 203 48 308 165 538 54 107 130 330 185 545 44 169 84 379 79 412 -2 12
-11 -21 -20 -73z"/>
<path d="M2473 1478 c-16 -21 -83 -184 -83 -201 0 -9 -9 -40 -20 -69 l-20 -52
21 -22 c20 -21 39 -27 141 -40 79 -11 93 -2 117 68 27 79 26 110 -2 145 -13
15 -34 46 -47 68 -31 53 -80 115 -90 115 -4 0 -12 -6 -17 -12z"/>
</g>
</svg>
