<svg width="119" height="37" viewBox="0 0 119 37" fill="none" xmlns="http://www.w3.org/2000/svg">
<path d="M3.56 33V20.88H0.7V18.4H9.3V20.88H6.44V33H3.56ZM15 33.2C13.8933 33.2 13.0133 32.98 12.36 32.54C11.7067 32.0867 11.2333 31.3533 10.94 30.34C10.6467 29.3267 10.5 27.98 10.5 26.3V25.1C10.5 23.4067 10.6467 22.06 10.94 21.06C11.2333 20.0467 11.7067 19.32 12.36 18.88C13.0133 18.4267 13.8933 18.2 15 18.2C16.0933 18.2 16.9667 18.4267 17.62 18.88C18.2867 19.32 18.7667 20.0467 19.06 21.06C19.3533 22.06 19.5 23.4067 19.5 25.1V26.3C19.5 27.98 19.3533 29.3267 19.06 30.34C18.7667 31.3533 18.2867 32.0867 17.62 32.54C16.9667 32.98 16.0933 33.2 15 33.2ZM15 30.72C15.4533 30.72 15.7933 30.6 16.02 30.36C16.2467 30.12 16.4 29.6733 16.48 29.02C16.5733 28.3533 16.62 27.38 16.62 26.1V25.3C16.62 24.02 16.5733 23.0533 16.48 22.4C16.4 21.7333 16.2467 21.28 16.02 21.04C15.7933 20.8 15.4533 20.68 15 20.68C14.56 20.68 14.22 20.8 13.98 21.04C13.7533 21.28 13.5933 21.7333 13.5 22.4C13.42 23.0533 13.38 24.02 13.38 25.3V26.1C13.38 27.38 13.42 28.3533 13.5 29.02C13.5933 29.6733 13.7533 30.12 13.98 30.36C14.22 30.6 14.56 30.72 15 30.72ZM21.04 18.44C21.6667 18.3467 22.2133 18.2867 22.68 18.26C23.16 18.22 23.6067 18.2 24.02 18.2C25.3267 18.2 26.3733 18.36 27.16 18.68C27.96 19 28.54 19.5133 28.9 20.22C29.26 20.9133 29.44 21.84 29.44 23C29.44 24.1467 29.26 25.0733 28.9 25.78C28.54 26.4867 27.96 27 27.16 27.32C26.3733 27.64 25.3267 27.8 24.02 27.8C23.6867 27.8 23.36 27.7933 23.04 27.78C22.7333 27.7533 22.4667 27.7333 22.24 27.72L23.2 25.32C23.4 25.3467 23.5933 25.3667 23.78 25.38C23.98 25.3933 24.1533 25.4 24.3 25.4C24.8733 25.4 25.3267 25.3267 25.66 25.18C25.9933 25.02 26.2333 24.7733 26.38 24.44C26.5267 24.0933 26.6 23.6333 26.6 23.06C26.6 22.4867 26.5267 22.0333 26.38 21.7C26.2333 21.3533 25.9933 21.1067 25.66 20.96C25.3267 20.8 24.8733 20.72 24.3 20.72C24.1533 20.72 23.9867 20.7267 23.8 20.74C23.6267 20.7533 23.4267 20.7733 23.2 20.8L23.84 20.06V33H21.04V18.44ZM26.56 33L23.28 26.6H26.28L29.64 33H26.56ZM35 33.2C33.8933 33.2 33.0133 32.98 32.36 32.54C31.7067 32.0867 31.2333 31.3533 30.94 30.34C30.6467 29.3267 30.5 27.98 30.5 26.3V25.1C30.5 23.4067 30.6467 22.06 30.94 21.06C31.2333 20.0467 31.7067 19.32 32.36 18.88C33.0133 18.4267 33.8933 18.2 35 18.2C36.0933 18.2 36.9667 18.4267 37.62 18.88C38.2867 19.32 38.7667 20.0467 39.06 21.06C39.3533 22.06 39.5 23.4067 39.5 25.1V26.3C39.5 27.98 39.3533 29.3267 39.06 30.34C38.7667 31.3533 38.2867 32.0867 37.62 32.54C36.9667 32.98 36.0933 33.2 35 33.2ZM35 30.72C35.4533 30.72 35.7933 30.6 36.02 30.36C36.2467 30.12 36.4 29.6733 36.48 29.02C36.5733 28.3533 36.62 27.38 36.62 26.1V25.3C36.62 24.02 36.5733 23.0533 36.48 22.4C36.4 21.7333 36.2467 21.28 36.02 21.04C35.7933 20.8 35.4533 20.68 35 20.68C34.56 20.68 34.22 20.8 33.98 21.04C33.7533 21.28 33.5933 21.7333 33.5 22.4C33.42 23.0533 33.38 24.02 33.38 25.3V26.1C33.38 27.38 33.42 28.3533 33.5 29.02C33.5933 29.6733 33.7533 30.12 33.98 30.36C34.22 30.6 34.56 30.72 35 30.72ZM41.2 33V30.6L45.64 20.88V20.8H41.2V18.4H48.8V20.8L44.36 30.52V30.6H48.8V33H41.2ZM55 33.2C53.8933 33.2 53.0133 32.98 52.36 32.54C51.7067 32.0867 51.2333 31.3533 50.94 30.34C50.6467 29.3267 50.5 27.98 50.5 26.3V25.1C50.5 23.4067 50.6467 22.06 50.94 21.06C51.2333 20.0467 51.7067 19.32 52.36 18.88C53.0133 18.4267 53.8933 18.2 55 18.2C56.0933 18.2 56.9667 18.4267 57.62 18.88C58.2867 19.32 58.7667 20.0467 59.06 21.06C59.3533 22.06 59.5 23.4067 59.5 25.1V26.3C59.5 27.98 59.3533 29.3267 59.06 30.34C58.7667 31.3533 58.2867 32.0867 57.62 32.54C56.9667 32.98 56.0933 33.2 55 33.2ZM55 30.72C55.4533 30.72 55.7933 30.6 56.02 30.36C56.2467 30.12 56.4 29.6733 56.48 29.02C56.5733 28.3533 56.62 27.38 56.62 26.1V25.3C56.62 24.02 56.5733 23.0533 56.48 22.4C56.4 21.7333 56.2467 21.28 56.02 21.04C55.7933 20.8 55.4533 20.68 55 20.68C54.56 20.68 54.22 20.8 53.98 21.04C53.7533 21.28 53.5933 21.7333 53.5 22.4C53.42 23.0533 53.38 24.02 53.38 25.3V26.1C53.38 27.38 53.42 28.3533 53.5 29.02C53.5933 29.6733 53.7533 30.12 53.98 30.36C54.22 30.6 54.56 30.72 55 30.72ZM65 33.2C63.5467 33.2 62.48 32.8733 61.8 32.22C61.1333 31.5533 60.8 30.5133 60.8 29.1V18.4H63.6V28.8C63.6 29.4933 63.7067 29.9867 63.92 30.28C64.1333 30.5733 64.4933 30.72 65 30.72C65.5067 30.72 65.8667 30.5733 66.08 30.28C66.2933 29.9867 66.4 29.4933 66.4 28.8V18.4H69.2V29.1C69.2 30.5133 68.86 31.5533 68.18 32.22C67.5133 32.8733 66.4533 33.2 65 33.2ZM70.8 33V18.4H74.4L76.32 27.6H76.4V18.4H79.2V33H75.6L73.68 23.8H73.6V33H70.8ZM83.68 33.2C82.88 33.2 81.96 33.12 80.92 32.96V18.44C81.96 18.28 82.88 18.2 83.68 18.2C85.0667 18.2 86.1867 18.4333 87.04 18.9C87.8933 19.3667 88.52 20.1067 88.92 21.12C89.32 22.1333 89.52 23.46 89.52 25.1V26.3C89.52 27.9267 89.32 29.2533 88.92 30.28C88.52 31.2933 87.8933 32.0333 87.04 32.5C86.1867 32.9667 85.0667 33.2 83.68 33.2ZM83.26 30.4C83.38 30.4933 83.5133 30.5667 83.66 30.62C83.82 30.66 84 30.68 84.2 30.68C84.7733 30.68 85.24 30.52 85.6 30.2C85.96 29.8667 86.2267 29.36 86.4 28.68C86.5867 28 86.68 27.14 86.68 26.1V25.3C86.68 24.2467 86.5867 23.3867 86.4 22.72C86.2267 22.04 85.96 21.54 85.6 21.22C85.24 20.8867 84.7733 20.72 84.2 20.72C84 20.72 83.82 20.74 83.66 20.78C83.5133 20.82 83.38 20.8933 83.26 21L83.72 20.08V31.32L83.26 30.4Z" fill="url(#paint0_linear_318_176)"/>
<mask id="mask0_318_176" style="mask-type:luminance" maskUnits="userSpaceOnUse" x="87" y="0" width="32" height="37">
<path d="M108.389 19.8139C108.761 20.7637 109.127 21.7157 109.492 22.6676C109.897 23.7236 110.297 24.7937 110.735 25.8361L117.129 32.5897L116.517 33.2847C114.523 35.549 111.908 36.7697 108.906 36.8963C107.651 36.9491 106.051 36.7972 104.846 36.3883L104.04 36.1174L105.483 26.297C105.055 26.2471 104.625 26.2121 104.195 26.1905L104.103 26.1859C101.904 26.0758 100.009 25.9158 98.1538 24.5752C95.3879 22.5769 93.8926 18.6108 92.9805 15.4663C92.8322 14.9552 92.7011 14.4388 92.5932 13.9178L87 12.0046L92.564 8.80655C93.0137 7.18879 94.0129 5.89045 95.5992 5.22946C96.6933 4.77323 97.9073 4.6232 99.0694 4.88808C100.227 5.15184 101.22 5.79347 101.973 6.70762C102.586 7.45144 103.117 8.2995 103.595 9.13546L103.638 9.2101L109.776 0L110.637 0.66527C111.295 1.1699 111.965 1.89269 112.467 2.54456C113.392 3.74778 114.071 5.13155 114.294 6.62795L118.726 4.45307L118.805 5.98948C118.927 8.25054 118.511 11.0471 117.742 13.153C117.064 15.0116 116.01 16.7222 114.43 17.9461C112.665 19.3129 110.565 19.8286 108.389 19.8137" fill="white"/>
</mask>
<g mask="url(#mask0_318_176)">
<path d="M118.928 0H87V36.9493H118.928V0Z" fill="url(#paint1_linear_318_176)"/>
</g>
<path d="M90.6557 11.4142L92.5964 11.4635L91.0183 11.9114L92.9056 12.4759C92.812 11.6856 92.7973 10.9719 92.8492 10.3301L90.6555 11.4142H90.6557Z" fill="url(#paint2_linear_318_176)"/>
<path d="M107 33.3499C106.658 33.3134 106.317 33.2564 105.977 33.1792L105.697 35.0875C105.933 35.1488 106.272 35.2255 106.689 35.2899L107 33.3497V33.3499Z" fill="url(#paint3_linear_318_176)"/>
<path d="M109.764 33.2122C109.169 33.3365 108.561 33.4002 107.948 33.4003L107.629 35.3945C108.355 35.444 109.205 35.4308 110.112 35.2746L109.764 33.2122Z" fill="url(#paint4_linear_318_176)"/>
<path d="M112.038 32.4011C111.601 32.6278 111.147 32.8173 110.682 32.9681L111.036 35.0674C111.675 34.8897 112.33 34.6328 112.977 34.2715L112.038 32.4011Z" fill="url(#paint5_linear_318_176)"/>
<path d="M113.781 31.2137C113.485 31.4716 113.175 31.7076 112.853 31.9213L113.779 33.7656C114.233 33.4435 114.678 33.0634 115.108 32.6158L113.781 31.2137Z" fill="url(#paint6_linear_318_176)"/>
<path d="M106.115 32.2419C107.363 32.5375 108.645 32.5221 109.856 32.2217C111.049 31.9257 112.174 31.3524 113.13 30.5268L109.587 26.7837C109.348 26.6692 108.485 26.2884 107.032 25.9932L106.115 32.2419Z" fill="url(#paint7_linear_318_176)"/>
<path d="M108.892 9.8838C108.853 9.12583 108.704 8.37531 108.449 7.65625C108.238 7.06041 107.953 6.48728 107.599 5.95026L104.088 11.2171C104.224 11.4867 104.359 11.7622 104.494 12.0421L108.892 9.88362L108.892 9.8838Z" fill="url(#paint8_linear_318_176)"/>
<path d="M109.276 7.16517L111.796 4.36951C111.357 3.56966 110.792 2.83031 110.11 2.18402L108.163 5.10403C108.629 5.74435 109.001 6.43848 109.276 7.16517Z" fill="url(#paint9_linear_318_176)"/>
<path d="M112.236 5.29346L109.601 8.21774C109.697 8.61776 109.765 9.02467 109.805 9.43567L112.871 7.93127C112.827 7.40449 112.735 6.88311 112.6 6.37401C112.502 6.00675 112.38 5.64582 112.236 5.29346Z" fill="url(#paint10_linear_318_176)"/>
<path d="M113.574 10.9971L116.842 10.8955C117.244 9.21013 117.324 7.66162 117.331 6.79364L113.847 8.50298C113.863 9.33317 113.773 10.171 113.574 10.9971" fill="url(#paint11_linear_318_176)"/>
<path d="M111.916 14.5581L114.657 15.5478C115.577 14.4483 116.183 13.1382 116.581 11.8481L113.293 11.9503L113.25 12.0733C112.92 12.9768 112.468 13.8104 111.916 14.5581Z" fill="url(#paint12_linear_318_176)"/>
<path d="M109.726 16.7196L110.729 18.0174C112.045 17.6821 113.1 17.0705 113.946 16.2941L111.281 15.3321C110.812 15.8496 110.29 16.3142 109.726 16.7196" fill="url(#paint13_linear_318_176)"/>
<path d="M109.689 18.2156L108.931 17.2354C108.231 17.6432 107.479 17.9662 106.692 18.1931C107.802 18.3333 108.797 18.3322 109.689 18.2156Z" fill="url(#paint14_linear_318_176)"/>
<path d="M101.595 13.4651L103.645 12.459C103.197 11.5268 102.746 10.6525 102.302 9.87481C101.793 8.98654 101.296 8.22597 100.824 7.65284C100.25 6.95611 99.5268 6.51849 98.7409 6.33942C97.9267 6.15402 97.0383 6.24263 96.1705 6.6043C95.1396 7.03391 94.2757 7.93838 93.9293 9.47442C93.6252 10.8236 93.7117 12.6494 94.4088 15.0523C97.104 24.3442 100.705 24.5253 104.175 24.6999L104.267 24.7045C106.445 24.8144 108.047 25.2218 109.013 25.5468C108.754 24.8931 108.447 24.0932 108.104 23.1992C107.648 22.0092 107.124 20.6446 106.522 19.1342C106.263 19.1022 104.364 18.6065 103.949 17.6362C105.83 17.6364 107.611 17.0487 109.083 16.019C110.554 14.99 111.716 13.5187 112.361 11.7515C112.693 10.8413 112.869 9.90217 112.899 8.96849C109.39 10.4303 106.14 12.4104 101.595 13.4651Z" fill="url(#paint15_linear_318_176)"/>
<mask id="mask1_318_176" style="mask-type:luminance" maskUnits="userSpaceOnUse" x="95" y="8" width="4" height="4">
<path d="M97.0831 8.43817C98.054 8.43817 98.841 9.22536 98.841 10.1963C98.841 11.1672 98.0538 11.9542 97.0831 11.9542C96.1123 11.9542 95.325 11.1672 95.325 10.1963C95.325 9.22536 96.1121 8.43817 97.0831 8.43817Z" fill="white"/>
</mask>
<g mask="url(#mask1_318_176)">
<path d="M98.8412 8.43817H95.325V11.9544H98.8412V8.43817Z" fill="url(#paint16_linear_318_176)"/>
</g>
<path fill-rule="evenodd" clip-rule="evenodd" d="M97.9161 8.4566C98.2941 8.4566 98.6007 8.76318 98.6007 9.14123C98.6007 9.51929 98.2941 9.82605 97.9161 9.82605C97.538 9.82605 97.2314 9.51947 97.2314 9.14123C97.2314 8.76299 97.5378 8.4566 97.9161 8.4566Z" fill="url(#paint17_linear_318_176)"/>
<defs>
<linearGradient id="paint0_linear_318_176" x1="81.4992" y1="39.5341" x2="78.0559" y2="6.96577" gradientUnits="userSpaceOnUse">
<stop offset="0.395" stop-color="white"/>
<stop offset="1" stop-color="white"/>
</linearGradient>
<linearGradient id="paint1_linear_318_176" x1="115.912" y1="43.1676" x2="92.0804" y2="-2.28005" gradientUnits="userSpaceOnUse">
<stop offset="0.395" stop-color="#0E0837"/>
<stop offset="1" stop-color="#D71462"/>
</linearGradient>
<linearGradient id="paint2_linear_318_176" x1="92.6931" y1="12.837" x2="91.4677" y2="10.0014" gradientUnits="userSpaceOnUse">
<stop offset="0.395" stop-color="#0E0837"/>
<stop offset="1" stop-color="#D71462"/>
</linearGradient>
<linearGradient id="paint3_linear_318_176" x1="106.877" y1="35.6451" x2="105.298" y2="33.4933" gradientUnits="userSpaceOnUse">
<stop offset="0.395" stop-color="#0E0837"/>
<stop offset="1" stop-color="#D71462"/>
</linearGradient>
<linearGradient id="paint4_linear_318_176" x1="109.878" y1="35.7917" x2="108.677" y2="32.8126" gradientUnits="userSpaceOnUse">
<stop offset="0.395" stop-color="#0E0837"/>
<stop offset="1" stop-color="#D71462"/>
</linearGradient>
<linearGradient id="paint5_linear_318_176" x1="112.76" y1="35.5161" x2="111.037" y2="32.2418" gradientUnits="userSpaceOnUse">
<stop offset="0.395" stop-color="#0E0837"/>
<stop offset="1" stop-color="#D71462"/>
</linearGradient>
<linearGradient id="paint6_linear_318_176" x1="114.895" y1="34.195" x2="113.27" y2="31.0261" gradientUnits="userSpaceOnUse">
<stop offset="0.395" stop-color="#0E0837"/>
<stop offset="1" stop-color="#D71462"/>
</linearGradient>
<linearGradient id="paint7_linear_318_176" x1="112.468" y1="33.5431" x2="108.865" y2="24.9124" gradientUnits="userSpaceOnUse">
<stop offset="0.395" stop-color="#0E0837"/>
<stop offset="1" stop-color="#D71462"/>
</linearGradient>
<linearGradient id="paint8_linear_318_176" x1="108.439" y1="13.0673" x2="104.312" y2="5.88489" gradientUnits="userSpaceOnUse">
<stop offset="0.395" stop-color="#0E0837"/>
<stop offset="1" stop-color="#D71462"/>
</linearGradient>
<linearGradient id="paint9_linear_318_176" x1="111.453" y1="8.00346" x2="107.952" y2="2.36732" gradientUnits="userSpaceOnUse">
<stop offset="0.395" stop-color="#0E0837"/>
<stop offset="1" stop-color="#D71462"/>
</linearGradient>
<linearGradient id="paint10_linear_318_176" x1="112.562" y1="10.1328" x2="109.758" y2="5.24622" gradientUnits="userSpaceOnUse">
<stop offset="0.395" stop-color="#0E0837"/>
<stop offset="1" stop-color="#D71462"/>
</linearGradient>
<linearGradient id="paint11_linear_318_176" x1="116.976" y1="11.7045" x2="114.317" y2="6.46051" gradientUnits="userSpaceOnUse">
<stop offset="0.395" stop-color="#0E0837"/>
<stop offset="1" stop-color="#D71462"/>
</linearGradient>
<linearGradient id="paint12_linear_318_176" x1="116.141" y1="16.1705" x2="114.294" y2="11.0319" gradientUnits="userSpaceOnUse">
<stop offset="0.395" stop-color="#0E0837"/>
<stop offset="1" stop-color="#D71462"/>
</linearGradient>
<linearGradient id="paint13_linear_318_176" x1="113.547" y1="18.4693" x2="112.427" y2="14.5814" gradientUnits="userSpaceOnUse">
<stop offset="0.395" stop-color="#0E0837"/>
<stop offset="1" stop-color="#D71462"/>
</linearGradient>
<linearGradient id="paint14_linear_318_176" x1="109.406" y1="18.4801" x2="109.143" y2="16.8516" gradientUnits="userSpaceOnUse">
<stop offset="0.395" stop-color="#0E0837"/>
<stop offset="1" stop-color="#D71462"/>
</linearGradient>
<linearGradient id="paint15_linear_318_176" x1="116" y1="-1" x2="100.727" y2="32.2676" gradientUnits="userSpaceOnUse">
<stop offset="0.0685008" stop-color="#0E0837"/>
<stop offset="0.431607" stop-color="#FF28AC"/>
<stop offset="0.844078" stop-color="#D71462"/>
</linearGradient>
<linearGradient id="paint16_linear_318_176" x1="98.509" y1="12.5461" x2="96.4361" y2="7.97123" gradientUnits="userSpaceOnUse">
<stop offset="0.395" stop-color="#0E0837"/>
<stop offset="1" stop-color="#D71462"/>
</linearGradient>
<linearGradient id="paint17_linear_318_176" x1="98.4714" y1="10.0565" x2="97.664" y2="8.27483" gradientUnits="userSpaceOnUse">
<stop offset="0.395" stop-color="#0E0837"/>
<stop offset="1" stop-color="#D71462"/>
</linearGradient>
</defs>
</svg>
